<?xml version="1.0" encoding="utf-8"?>
<!-- Generator: Adobe Illustrator 16.0.0, SVG Export Plug-In . SVG Version: 6.00 Build 0)  -->
<!DOCTYPE svg PUBLIC "-//W3C//DTD SVG 1.1//EN" "http://www.w3.org/Graphics/SVG/1.1/DTD/svg11.dtd">
<svg version="1.1" id="Layer_1" xmlns="http://www.w3.org/2000/svg" xmlns:xlink="http://www.w3.org/1999/xlink" x="0px" y="0px"
	 width="30px" height="30px" viewBox="0 0 30 30" enable-background="new 0 0 30 30" xml:space="preserve">
<path d="M26.774,12.777c-0.038-0.076-0.115-0.152-0.228-0.19l-1.293-0.418l0.494-1.482c0.076-0.189-0.038-0.418-0.229-0.494
	L10.848,5.328c-0.189-0.077-0.418,0.038-0.492,0.227l-2.511,7.488c-0.075,0.19,0.039,0.418,0.228,0.494l5.056,1.673
	c-0.076,3.04-1.977,5.586-4.637,6.689V17.68c0-0.229-0.153-0.381-0.38-0.381H4.386c-0.227,0.001-0.38,0.152-0.38,0.381v7.715
	c0,0.229,0.153,0.381,0.38,0.381h3.726c0.227,0,0.38-0.152,0.38-0.381v-2.697c3.002-1.064,5.207-3.877,5.396-7.222l8.896,2.964
	c0.037,0,0.075,0.038,0.113,0.038c0.076,0,0.114,0,0.152-0.038c0.076-0.039,0.151-0.113,0.191-0.227l0.493-1.483l1.292,0.419
	c0.038,0,0.075,0.037,0.113,0.037c0.154,0,0.305-0.114,0.342-0.266l1.255-3.839C26.812,12.966,26.812,12.891,26.774,12.777z
	 M7.729,25.016H4.766v-6.955h2.964V25.016z M22.668,17.604L8.72,12.966l2.242-6.765L24.911,10.8L22.668,17.604z M24.911,16.311
	l-0.912-0.303l1.025-3.117l0.913,0.304L24.911,16.311z"/>
</svg>
