<?xml version="1.0" encoding="utf-8"?>
<!-- Generator: Adobe Illustrator 16.0.0, SVG Export Plug-In . SVG Version: 6.00 Build 0)  -->
<!DOCTYPE svg PUBLIC "-//W3C//DTD SVG 1.1//EN" "http://www.w3.org/Graphics/SVG/1.1/DTD/svg11.dtd">
<svg version="1.1" id="Layer_1" xmlns="http://www.w3.org/2000/svg" xmlns:xlink="http://www.w3.org/1999/xlink" x="0px" y="0px"
	 width="30px" height="30px" viewBox="0 0 30 30" enable-background="new 0 0 30 30" xml:space="preserve">
<path d="M24.316,7.462H5.107c-1.291,0-2.318,1.027-2.318,2.318v11.194c0,1.291,1.027,2.318,2.318,2.318h19.209
	c1.292,0,2.318-1.027,2.318-2.318V9.78C26.635,8.489,25.608,7.462,24.316,7.462z M25.873,20.975c0,0.861-0.695,1.557-1.557,1.557
	H5.107c-0.861,0-1.557-0.695-1.557-1.557V10.906l9.936,6.227c0.365,0.231,0.796,0.364,1.226,0.364c0.431,0,0.861-0.133,1.226-0.364
	l9.936-6.227V20.975z M25.873,9.979L15.54,16.471c-0.497,0.297-1.159,0.297-1.656,0L3.551,9.979V9.747
	c0-0.861,0.695-1.557,1.557-1.557h19.209c0.861,0,1.557,0.695,1.557,1.557V9.979z"/>
</svg>
