<?xml version="1.0" encoding="utf-8"?>
<!-- Generator: Adobe Illustrator 16.0.0, SVG Export Plug-In . SVG Version: 6.00 Build 0)  -->
<!DOCTYPE svg PUBLIC "-//W3C//DTD SVG 1.1//EN" "http://www.w3.org/Graphics/SVG/1.1/DTD/svg11.dtd">
<svg version="1.1" id="Layer_1" xmlns="http://www.w3.org/2000/svg" xmlns:xlink="http://www.w3.org/1999/xlink" x="0px" y="0px"
	 width="30px" height="30px" viewBox="0 0 30 30" enable-background="new 0 0 30 30" xml:space="preserve">
<path d="M7.988,4.408c-0.037-0.147,0-0.331,0.108-0.477c0.11-0.148,0.258-0.221,0.442-0.221h6.348c0.146,0,0.331,0.073,0.441,0.184
	c0.109,0.109,0.146,0.293,0.109,0.44c0,0.037,0,0.074,0,0.109c0,0.734,1.657,1.543,3.639,1.543c1.027,0,2.019-0.221,2.718-0.624
	c0.184-0.11,0.439-0.11,0.622,0.036c0.186,0.146,0.258,0.367,0.186,0.588L19.48,16.414l-0.688-0.15l3.052-10.108
	c-0.66,0.183-1.96,0.444-2.73,0.444c-1.396,0-3.06-0.48-3.904-1.032l1.151,5.32c0.036,0.293,0.003,0.587-0.29,0.624
	c-0.038,0-0.073,0-0.073,0c-0.258,0-0.364-0.184-0.401-0.477L14.381,4.36H8.633l3.235,11.977l-0.686,0.15L7.988,4.408z
	 M7.914,17.577c0,0.188,0.257,0.354,0.551,0.354h13.587c0.292,0,0.55-0.165,0.55-0.354c0-0.19-0.258-0.354-0.55-0.354H8.465
	C8.171,17.223,7.914,17.387,7.914,17.577z M25.539,14.028h-4.627l-0.181,0.65h4.673V25.09H5.076V14.678h4.78l-0.143-0.65H4.977
	c-0.294,0-0.551,0.257-0.551,0.551V25.19c0,0.294,0.257,0.55,0.551,0.55h20.563c0.293,0,0.551-0.256,0.551-0.55V14.579
	C26.09,14.248,25.832,14.028,25.539,14.028z"/>
</svg>
