<?xml version="1.0" encoding="utf-8"?>
<!-- Generator: Adobe Illustrator 16.0.0, SVG Export Plug-In . SVG Version: 6.00 Build 0)  -->
<!DOCTYPE svg PUBLIC "-//W3C//DTD SVG 1.1//EN" "http://www.w3.org/Graphics/SVG/1.1/DTD/svg11.dtd">
<svg version="1.1" id="Layer_1" xmlns="http://www.w3.org/2000/svg" xmlns:xlink="http://www.w3.org/1999/xlink" x="0px" y="0px"
	 width="30px" height="30px" viewBox="0 0 30 30" enable-background="new 0 0 30 30" xml:space="preserve">
<g>
	<g>
		<path d="M14.437,14.449c0.498-0.551,1.216-0.897,2.017-0.897c0.534,0,1.033,0.156,1.454,0.423
			c0.088-1.677,0.987-2.348,2.423-2.192c0.323,0.036,0.648,0.106,1.049,0.218c0.095,0.027,0.47,0.138,0.547,0.157
			c1.056,0.274,1.732-0.079,2.321-0.952c0.55-0.847,0.688-2.138-0.136-3.422c-2.276-3.232-7.781-3.706-10.465-1.078
			C12,8.316,12.228,10.87,14.437,14.449z M18.697,14.733c4.4-0.321,7.061,0.782,7.871,3.368c1.264,4.039-1.953,9.204-6.359,9.836
			c-1.873,0.188-3.233-0.698-3.88-1.819c-0.66-1.188-0.671-2.301,0.304-3.402c0.063-0.067,0.332-0.354,0.394-0.423
			c0.257-0.277,0.443-0.505,0.593-0.733c0.643-0.985,0.425-1.7-1.265-2.38c-2.136,3.916-4.523,5.572-7.151,4.839
			c-4.076-1.14-6.655-6.653-4.787-10.692c0.863-1.673,2.346-2.33,3.641-2.261c1.354,0.091,2.294,0.691,2.688,2.105
			c0.023,0.091,0.116,0.473,0.14,0.563c0.094,0.363,0.183,0.645,0.291,0.896c0.47,1.062,1.177,1.277,2.632,0.275
			c-2.407-3.879-2.676-6.823-0.703-8.753c3.025-2.961,9.09-2.438,11.651,1.2c1.019,1.584,0.846,3.197,0.14,4.283
			c-0.759,1.127-1.746,1.642-3.17,1.274c-0.088-0.025-0.468-0.134-0.556-0.159c-0.362-0.103-0.65-0.165-0.922-0.194
			C19.085,12.428,18.544,12.943,18.697,14.733z M15.642,18.864c-1.104-0.345-1.907-1.376-1.907-2.595
			c0-0.146,0.013-0.29,0.035-0.429c-1.6,0.902-2.697,0.479-3.304-0.899c-0.129-0.297-0.23-0.614-0.335-1.017
			c-0.025-0.097-0.116-0.476-0.135-0.552c-0.293-1.052-0.938-1.462-1.988-1.534c-1.007-0.053-2.194,0.473-2.895,1.829
			c-1.659,3.588,0.682,8.59,4.3,9.602C11.6,23.881,13.67,22.455,15.642,18.864z M19.056,15.487c0.074,0.249,0.112,0.511,0.112,0.782
			c0,1.17-0.738,2.166-1.772,2.549c1.472,0.842,1.667,1.953,0.872,3.166c-0.178,0.272-0.388,0.529-0.67,0.834
			c-0.067,0.074-0.334,0.357-0.388,0.418c-0.723,0.816-0.717,1.578-0.204,2.498c0.504,0.875,1.594,1.585,3.107,1.434
			c3.917-0.563,6.835-5.25,5.713-8.835C25.166,16.223,22.944,15.257,19.056,15.487z M16.453,18.211c1.071,0,1.938-0.869,1.938-1.941
			c0-1.071-0.867-1.939-1.938-1.939c-1.072,0-1.943,0.869-1.943,1.939C14.51,17.342,15.381,18.211,16.453,18.211z"/>
	</g>
</g>
</svg>
