<?xml version="1.0" encoding="utf-8"?>
<!-- Generator: Adobe Illustrator 16.0.0, SVG Export Plug-In . SVG Version: 6.00 Build 0)  -->
<!DOCTYPE svg PUBLIC "-//W3C//DTD SVG 1.1//EN" "http://www.w3.org/Graphics/SVG/1.1/DTD/svg11.dtd">
<svg version="1.1" id="Layer_1" xmlns="http://www.w3.org/2000/svg" xmlns:xlink="http://www.w3.org/1999/xlink" x="0px" y="0px"
	 width="30px" height="30px" viewBox="0 0 30 30" enable-background="new 0 0 30 30" xml:space="preserve">
<path d="M8.45,8.704v17.018c0,0.202,0.164,0.366,0.368,0.366c0.202,0,0.364-0.164,0.364-0.366V8.704
	c0-1.278,0.321-4.246,3.285-4.246h4.212v3.339c-2.859,0.19-5.124,2.565-5.124,5.474v11.351c0,0.81,0.656,1.466,1.464,1.466h8.057
	c0.808,0,1.464-0.656,1.464-1.466V13.271c0-2.91-2.265-5.284-5.126-5.474v-3.34h4.76c0.203,0,0.366-0.163,0.366-0.367
	c0-0.202-0.163-0.366-0.366-0.366h-9.706C9.954,3.725,8.45,5.585,8.45,8.704z M17.047,8.512c2.625,0,4.762,2.135,4.762,4.759v11.35
	c0,0.405-0.329,0.733-0.732,0.733H13.02c-0.401,0-0.732-0.329-0.732-0.733v-11.35C12.288,10.646,14.424,8.512,17.047,8.512z"/>
</svg>
