<?xml version="1.0" encoding="utf-8"?>
<!-- Generator: Adobe Illustrator 16.0.0, SVG Export Plug-In . SVG Version: 6.00 Build 0)  -->
<!DOCTYPE svg PUBLIC "-//W3C//DTD SVG 1.1//EN" "http://www.w3.org/Graphics/SVG/1.1/DTD/svg11.dtd">
<svg version="1.1" id="Layer_1" xmlns="http://www.w3.org/2000/svg" xmlns:xlink="http://www.w3.org/1999/xlink" x="0px" y="0px"
	 width="30px" height="30px" viewBox="0 0 30 30" enable-background="new 0 0 30 30" xml:space="preserve">
<g transform="translate(0,-952.36218)">
	<path d="M12.306,959.369c-1.831,0-3.362,1.263-3.515,3.214h-4.2c-0.019-0.002-0.038-0.002-0.06,0
		c-0.154,0.029-0.263,0.165-0.261,0.321v13.499c0,0.18,0.144,0.322,0.32,0.322h21.857c0.178,0,0.322-0.143,0.322-0.322v-13.499
		c0-0.177-0.145-0.321-0.322-0.321h-4.199c-0.153-1.952-1.687-3.214-3.515-3.214H12.306z M12.306,960.012h6.429
		c1.525,0,2.682,0.961,2.832,2.571H9.473C9.624,960.973,10.782,960.012,12.306,960.012z M4.914,963.226h21.213v12.856H4.914V963.226
		z M15.473,965.914c-0.215,0.027-0.371,0.212-0.363,0.428v2.898h-2.898c-0.027-0.004-0.053-0.004-0.078,0
		c-0.229,0.021-0.397,0.225-0.377,0.453c0.023,0.229,0.227,0.396,0.455,0.376l0,0h2.898v2.899c-0.002,0.228,0.181,0.416,0.409,0.419
		c0.228,0.003,0.416-0.18,0.421-0.407c0-0.006,0-0.009,0-0.012v-2.899h2.898c0.229,0.003,0.416-0.181,0.421-0.409
		c0.001-0.229-0.181-0.417-0.409-0.42c-0.005,0-0.009,0-0.012,0h-2.898v-2.898c0.008-0.229-0.17-0.422-0.398-0.431
		C15.516,965.911,15.494,965.911,15.473,965.914z"/>
</g>
</svg>
