<?xml version="1.0" encoding="utf-8"?>
<!-- Generator: Adobe Illustrator 16.0.0, SVG Export Plug-In . SVG Version: 6.00 Build 0)  -->
<!DOCTYPE svg PUBLIC "-//W3C//DTD SVG 1.1//EN" "http://www.w3.org/Graphics/SVG/1.1/DTD/svg11.dtd">
<svg version="1.1" id="Layer_1" xmlns="http://www.w3.org/2000/svg" xmlns:xlink="http://www.w3.org/1999/xlink" x="0px" y="0px"
	 width="30px" height="30px" viewBox="0 0 30 30" enable-background="new 0 0 30 30" xml:space="preserve">
<g>
	<g>
		<path d="M9.699,12.538l5.759,10.247l5.767-10.261l0.176-0.383c0.086-0.209,0.162-0.424,0.227-0.643
			c0.149-0.524,0.229-1.077,0.229-1.647c0-3.402-2.863-6.16-6.398-6.16c-3.532,0-6.396,2.758-6.396,6.16
			c0,0.57,0.081,1.124,0.23,1.647c0.062,0.21,0.133,0.416,0.214,0.616L9.699,12.538z M20.756,11.266
			c-0.054,0.187-0.119,0.372-0.181,0.525l-0.161,0.351l-4.956,8.819l-3.989-7.098l9.078-6.009c0.262,0.617,0.411,1.29,0.411,1.998
			C20.958,10.331,20.888,10.806,20.756,11.266z M15.458,4.557c1.977,0,3.704,1.011,4.674,2.519l-9.093,6.02l-0.528-0.94
			l-0.166-0.361c-0.069-0.169-0.131-0.347-0.183-0.528c-0.133-0.459-0.199-0.935-0.199-1.416C9.963,6.932,12.428,4.557,15.458,4.557
			z"/>
		<rect x="4.39" y="25.692" width="22.14" height="0.868"/>
	</g>
</g>
</svg>
