<?xml version="1.0" encoding="utf-8"?>
<!-- Generator: Adobe Illustrator 16.0.0, SVG Export Plug-In . SVG Version: 6.00 Build 0)  -->
<!DOCTYPE svg PUBLIC "-//W3C//DTD SVG 1.1//EN" "http://www.w3.org/Graphics/SVG/1.1/DTD/svg11.dtd">
<svg version="1.1" id="Layer_1" xmlns="http://www.w3.org/2000/svg" xmlns:xlink="http://www.w3.org/1999/xlink" x="0px" y="0px"
	 width="30px" height="30px" viewBox="0 0 30 30" enable-background="new 0 0 30 30" xml:space="preserve">
<g>
	<path d="M13.302,26.018h3.695c0.151,0,0.252-0.101,0.252-0.25V10.606v-0.024c0-1.156,0.83-2.011,1.911-2.011
		c2.161,0,2.816,0.654,3.945,1.81c0.126,0.126,0.253,0.252,0.376,0.378c0.051,0.051,0.103,0.076,0.178,0.076
		c0.05,0,0.101-0.025,0.124-0.05c0.102-0.075,0.152-0.202,0.102-0.302c-1.281-3.294-2.714-4.978-4.926-5.782
		c-1.006-0.402-1.585-0.402-2.641-0.402h-1.91c-0.527,0-1.057,0.176-1.484,0.478c-0.175,0.125-0.301,0.251-0.426,0.352
		c-0.227,0.201-0.303,0.277-0.703,0.302c-0.076,0-0.127-0.051-0.127-0.126c0-0.352-0.276-0.628-0.627-0.628H8.224
		c-0.579,0-1.005,0.428-1.005,1.004v3.772c0,0.578,0.426,1.005,1.005,1.005l2.716-0.025c0.353,0,0.629-0.276,0.629-0.628
		c0-0.076,0.074-0.151,0.15-0.151c0.452,0,0.527,0.076,0.754,0.302c0.101,0.1,0.201,0.201,0.377,0.351
		c0.074,0.051,0.127,0.102,0.202,0.126v15.335C13.052,25.893,13.152,26.018,13.302,26.018z M13.554,25.516V10.657
		c0.252,0.077,0.502,0.127,0.778,0.127l0,0l2.414,0.049v14.68h-3.192V25.516z M12.823,9.602c-0.301-0.276-0.477-0.453-1.104-0.453
		c-0.353,0-0.655,0.302-0.655,0.654c0,0.075-0.049,0.125-0.124,0.125L8.222,9.954c-0.274,0-0.501-0.201-0.501-0.503V5.679
		c0-0.275,0.201-0.502,0.501-0.502h2.817c0.076,0,0.125,0.05,0.125,0.125c0,0.353,0.277,0.629,0.63,0.629l0,0
		c0.577-0.025,0.754-0.176,1.056-0.427c0.101-0.1,0.202-0.202,0.377-0.302c0.327-0.251,0.778-0.377,1.182-0.377h1.91
		c1.056,0,1.558,0,2.463,0.352c1.785,0.653,3.042,1.936,4.149,4.324c-0.907-0.879-1.786-1.407-3.771-1.407
		c-1.283,0-2.289,0.955-2.389,2.262l-2.414-0.051c-0.452,0-0.829-0.125-1.183-0.376C13.024,9.778,12.924,9.702,12.823,9.602z"/>
</g>
</svg>
