<?xml version="1.0" encoding="utf-8"?>
<!-- Generator: Adobe Illustrator 16.0.0, SVG Export Plug-In . SVG Version: 6.00 Build 0)  -->
<!DOCTYPE svg PUBLIC "-//W3C//DTD SVG 1.1//EN" "http://www.w3.org/Graphics/SVG/1.1/DTD/svg11.dtd">
<svg version="1.1" id="Layer_1" xmlns="http://www.w3.org/2000/svg" xmlns:xlink="http://www.w3.org/1999/xlink" x="0px" y="0px"
	 width="30px" height="30px" viewBox="0 0 30 30" enable-background="new 0 0 30 30" xml:space="preserve">
<g transform="translate(0,-952.36218)">
	<path d="M15.318,955.668c-4.834,0-8.735,3.901-8.735,8.734v3.763c-2.439,0.162-4.367,2.179-4.367,4.66
		c0,2.586,2.092,4.68,4.679,4.68h1.872c0.172,0,0.313-0.139,0.313-0.313v-8.734c0-0.173-0.14-0.312-0.313-0.312h-1.56v-3.744
		c0-4.498,3.614-8.11,8.111-8.11c4.499,0,8.11,3.612,8.11,8.11v3.744h-1.56c-0.207,0.008-0.315,0.169-0.312,0.312v8.734
		c0,0.162,0.147,0.313,0.312,0.313h1.873c2.586,0,4.678-2.093,4.678-4.68c0-2.481-1.926-4.498-4.366-4.66v-3.763
		C24.053,959.569,20.15,955.668,15.318,955.668z M6.895,968.769h1.561v8.11H6.895c-2.252,0-4.055-1.803-4.055-4.055
		S4.643,968.769,6.895,968.769z M22.181,968.769h1.561c2.251,0,4.054,1.804,4.054,4.056s-1.803,4.055-4.054,4.055h-1.561V968.769z"
		/>
</g>
</svg>
