<?xml version="1.0" encoding="utf-8"?>
<!-- Generator: Adobe Illustrator 16.0.0, SVG Export Plug-In . SVG Version: 6.00 Build 0)  -->
<!DOCTYPE svg PUBLIC "-//W3C//DTD SVG 1.1//EN" "http://www.w3.org/Graphics/SVG/1.1/DTD/svg11.dtd">
<svg version="1.1" id="Layer_1" xmlns="http://www.w3.org/2000/svg" xmlns:xlink="http://www.w3.org/1999/xlink" x="0px" y="0px"
	 width="30px" height="30px" viewBox="0 0 30 30" enable-background="new 0 0 30 30" xml:space="preserve">
<rect x="2" y="14" width="1" height="13"/>
<rect x="2" y="14" width="26" height="1"/>
<rect x="2" y="26" width="26" height="1"/>
<rect x="11" y="14" width="1" height="13"/>
<rect x="18" y="14" width="1" height="13"/>
<rect x="27" y="14" width="1" height="13"/>
<path d="M12.49,9.334c-0.091,0.211-0.033,0.479,0.133,0.596c0.052,0.038,0.11,0.056,0.166,0.056c0.12,0,0.237-0.081,0.3-0.223
	c0.035-0.08,0.856-1.992,0-3.938c-0.665-1.51-0.028-3.018,0.001-3.082c0.092-0.211,0.032-0.478-0.134-0.596
	c-0.165-0.12-0.374-0.043-0.466,0.167c-0.035,0.081-0.857,1.992,0,3.938C13.155,7.763,12.518,9.27,12.49,9.334z"/>
<path d="M17.312,9.334c-0.092,0.211-0.034,0.479,0.133,0.596c0.052,0.038,0.109,0.056,0.166,0.056c0.12,0,0.237-0.081,0.3-0.223
	c0.034-0.08,0.856-1.992,0-3.938c-0.666-1.51-0.027-3.018,0-3.082c0.093-0.211,0.032-0.478-0.132-0.596
	c-0.165-0.12-0.375-0.043-0.467,0.167c-0.036,0.081-0.857,1.992,0,3.938C17.978,7.763,17.339,9.27,17.312,9.334z"/>
<path d="M22.133,9.334c-0.093,0.211-0.034,0.479,0.132,0.596c0.054,0.038,0.111,0.056,0.168,0.056c0.119,0,0.235-0.081,0.299-0.223
	c0.035-0.08,0.856-1.992,0-3.938c-0.665-1.51-0.027-3.018,0-3.082c0.092-0.211,0.032-0.478-0.133-0.596
	c-0.165-0.12-0.374-0.043-0.465,0.167c-0.036,0.081-0.858,1.992,0,3.938C22.798,7.763,22.159,9.27,22.133,9.334z"/>
</svg>
