<?xml version="1.0" encoding="utf-8"?>
<!-- Generator: Adobe Illustrator 16.0.0, SVG Export Plug-In . SVG Version: 6.00 Build 0)  -->
<!DOCTYPE svg PUBLIC "-//W3C//DTD SVG 1.1//EN" "http://www.w3.org/Graphics/SVG/1.1/DTD/svg11.dtd">
<svg version="1.1" id="Layer_1" xmlns="http://www.w3.org/2000/svg" xmlns:xlink="http://www.w3.org/1999/xlink" x="0px" y="0px"
	 width="30px" height="30px" viewBox="0 0 30 30" enable-background="new 0 0 30 30" xml:space="preserve">
<g transform="translate(0,-952.36218)">
	<path d="M14.87,956.649c-6.247,0-11.317,5.07-11.317,11.318c0,6.247,5.07,11.317,11.317,11.317c6.249,0,11.319-5.07,11.319-11.317
		C26.189,961.72,21.119,956.649,14.87,956.649z M14.87,957.297c5.897,0,10.672,4.773,10.672,10.671
		c0,5.896-4.774,10.671-10.672,10.671c-5.896,0-10.67-4.774-10.67-10.671C4.2,962.07,8.975,957.297,14.87,957.297z M14.831,961.813
		c-0.167,0.021-0.29,0.166-0.284,0.333v9.054c-0.002,0.18,0.142,0.326,0.319,0.329c0.179,0.002,0.325-0.142,0.329-0.32
		c0-0.002,0-0.005,0-0.009v-9.054c0.006-0.178-0.132-0.329-0.312-0.335C14.866,961.81,14.848,961.811,14.831,961.813z
		 M14.87,972.495c-0.71,0-1.293,0.582-1.293,1.293s0.583,1.293,1.293,1.293c0.711,0,1.295-0.582,1.295-1.293
		S15.581,972.495,14.87,972.495z M14.87,973.141c0.362,0,0.646,0.286,0.646,0.647c0,0.36-0.284,0.646-0.646,0.646
		c-0.36,0-0.645-0.286-0.645-0.646C14.226,973.427,14.51,973.141,14.87,973.141z"/>
</g>
</svg>
