<?xml version="1.0" encoding="utf-8"?>
<!-- Generator: Adobe Illustrator 16.0.0, SVG Export Plug-In . SVG Version: 6.00 Build 0)  -->
<!DOCTYPE svg PUBLIC "-//W3C//DTD SVG 1.1//EN" "http://www.w3.org/Graphics/SVG/1.1/DTD/svg11.dtd">
<svg version="1.1" id="Layer_1" xmlns="http://www.w3.org/2000/svg" xmlns:xlink="http://www.w3.org/1999/xlink" x="0px" y="0px"
	 width="30px" height="30px" viewBox="0 0 30 30" enable-background="new 0 0 30 30" xml:space="preserve">
<g transform="translate(0,-952.36218)">
	<path d="M9.736,955.43c-1.594,0-2.887,1.293-2.887,2.887v19.051c0,1.594,1.293,2.886,2.887,2.886h9.813
		c1.593,0,2.887-1.292,2.887-2.886v-19.051c0-1.594-1.294-2.887-2.887-2.887H9.736z M9.736,956.007h9.813
		c1.284,0,2.31,1.025,2.31,2.31H7.427C7.427,957.032,8.451,956.007,9.736,956.007z M7.427,958.893h14.433v16.741H7.427V958.893z
		 M7.427,976.213h14.433v1.154c0,1.284-1.025,2.309-2.31,2.309H9.736c-1.285,0-2.31-1.024-2.31-2.309V976.213z M14.643,977.367
		c-0.319,0-0.576,0.258-0.576,0.576c0,0.319,0.257,0.577,0.576,0.577s0.578-0.258,0.578-0.577
		C15.221,977.625,14.962,977.367,14.643,977.367z"/>
</g>
</svg>
