<?xml version="1.0" encoding="utf-8"?>
<!-- Generator: Adobe Illustrator 16.0.0, SVG Export Plug-In . SVG Version: 6.00 Build 0)  -->
<!DOCTYPE svg PUBLIC "-//W3C//DTD SVG 1.1//EN" "http://www.w3.org/Graphics/SVG/1.1/DTD/svg11.dtd">
<svg version="1.1" id="Layer_1" xmlns="http://www.w3.org/2000/svg" xmlns:xlink="http://www.w3.org/1999/xlink" x="0px" y="0px"
	 width="30px" height="30px" viewBox="0 0 30 30" enable-background="new 0 0 30 30" xml:space="preserve">
<g>
	<path d="M22.849,10.283h-9.813c-0.159,0-0.289,0.129-0.289,0.288v4.461c0,0.159,0.13,0.288,0.289,0.288h9.813
		c0.16,0,0.288-0.129,0.288-0.288V10.57C23.137,10.412,23.009,10.283,22.849,10.283z M22.561,14.772h-9.237v-3.914h9.237V14.772z"/>
	<path d="M10.53,5.368c-1.112,0-2.014,0.902-2.014,2.014v2.274H5.321c-1.112,0-2.014,0.902-2.014,2.015l0,0v10.678
		c0,1.589,1.288,2.878,2.878,2.878l0,0h17.643c1.955,0,3.54-1.585,3.54-3.54l0,0V7.382c0-1.112-0.903-2.014-2.016-2.014H10.53z
		 M6.214,24.65c-1.271,0-2.303-1.03-2.303-2.302V11.671c0-0.794,0.646-1.438,1.439-1.438h3.166v12.116
		C8.517,23.62,7.486,24.65,6.214,24.65c-0.011,0-0.019,0-0.028,0H6.214z M26.82,7.382v14.304c0,1.638-1.328,2.964-2.963,2.964
		c-0.011,0-0.021,0-0.029,0H7.912c0.725-0.543,1.152-1.396,1.152-2.302V7.382c0-0.793,0.643-1.438,1.438-1.438h14.85
		c0.795,0,1.438,0.645,1.438,1.438H26.82z"/>
	<path d="M22.849,20.197h-9.813c-0.159,0-0.289,0.129-0.289,0.287c0,0.159,0.13,0.288,0.289,0.288h9.813
		c0.16,0,0.288-0.129,0.288-0.288C23.137,20.326,23.009,20.197,22.849,20.197z"/>
</g>
</svg>
