<?xml version="1.0" encoding="utf-8"?>
<!-- Generator: Adobe Illustrator 16.0.0, SVG Export Plug-In . SVG Version: 6.00 Build 0)  -->
<!DOCTYPE svg PUBLIC "-//W3C//DTD SVG 1.1//EN" "http://www.w3.org/Graphics/SVG/1.1/DTD/svg11.dtd">
<svg version="1.1" id="Layer_1" xmlns="http://www.w3.org/2000/svg" xmlns:xlink="http://www.w3.org/1999/xlink" x="0px" y="0px"
	 width="30px" height="30px" viewBox="0 0 30 30" enable-background="new 0 0 30 30" xml:space="preserve">
<g>
	<path d="M9.271,25.766h13.713c0.183,0,0.307-0.121,0.307-0.305V9.249c0-0.031,0-0.031,0-0.061c0-0.031,0-0.031,0-0.062
		c0-0.183-0.124-0.305-0.307-0.305h-1.217V4.251c0-0.183-0.125-0.305-0.307-0.305H10.186c-1.524,0-2.743,1.219-2.743,2.742v17.249
		C7.442,24.943,8.266,25.766,9.271,25.766z M10.186,4.555h10.971v4.267H10.186c-1.189,0-2.133-0.945-2.133-2.134
		C8.053,5.5,8.996,4.555,10.186,4.555z M10.186,9.431h12.492v15.725H9.271c-0.672,0-1.219-0.549-1.219-1.219V8.396
		C8.569,9.035,9.332,9.431,10.186,9.431z"/>
</g>
</svg>
