<?xml version="1.0" encoding="utf-8"?>
<!-- Generator: Adobe Illustrator 16.0.0, SVG Export Plug-In . SVG Version: 6.00 Build 0)  -->
<!DOCTYPE svg PUBLIC "-//W3C//DTD SVG 1.1//EN" "http://www.w3.org/Graphics/SVG/1.1/DTD/svg11.dtd">
<svg version="1.1" id="Layer_1" xmlns="http://www.w3.org/2000/svg" xmlns:xlink="http://www.w3.org/1999/xlink" x="0px" y="0px"
	 width="30px" height="30px" viewBox="0 0 30 30" enable-background="new 0 0 30 30" xml:space="preserve">
<path d="M28.227,13.39v11.688c0,1.476-1.194,2.672-2.672,2.672h-8.014c-0.187,0-0.334-0.148-0.334-0.333
	c0-0.186,0.147-0.335,0.334-0.335h8.014c1.106,0,2.003-0.897,2.003-2.004V13.39c0-1.105-0.896-2.003-2.003-2.003H4.85
	c-1.106,0-2.003,0.897-2.003,2.003v11.688c0,1.106,0.896,2.004,2.003,2.004h7.905c0.186,0,0.334,0.149,0.334,0.335
	c0,0.185-0.148,0.333-0.334,0.333H4.85c-1.476,0-2.672-1.196-2.672-2.672V13.39c0-1.475,1.196-2.672,2.672-2.672h20.705
	C27.032,10.718,28.227,11.915,28.227,13.39z M10.193,9.35c0.116,0.142,0.326,0.162,0.471,0.046c0.127-0.105,0.159-0.289,0.073-0.431
	L6.598,3.11C6.5,2.952,6.296,2.902,6.136,2.997c-0.157,0.095-0.205,0.3-0.111,0.458c0.008,0.013,0.018,0.026,0.027,0.039
	L10.193,9.35z M12.676,9.49c0.109-0.002,0.207-0.054,0.269-0.14l2.532-3.714c0.104-0.151,0.07-0.359-0.082-0.466
	c-0.151-0.105-0.357-0.069-0.466,0.082c-0.001,0.002-0.002,0.004-0.004,0.006l-2.53,3.701c-0.105,0.151-0.068,0.359,0.084,0.464
	c0.057,0.04,0.124,0.06,0.192,0.059L12.676,9.49z"/>
</svg>
