<?xml version="1.0" encoding="utf-8"?>
<!-- Generator: Adobe Illustrator 16.0.0, SVG Export Plug-In . SVG Version: 6.00 Build 0)  -->
<!DOCTYPE svg PUBLIC "-//W3C//DTD SVG 1.1//EN" "http://www.w3.org/Graphics/SVG/1.1/DTD/svg11.dtd">
<svg version="1.1" id="Layer_1" xmlns="http://www.w3.org/2000/svg" xmlns:xlink="http://www.w3.org/1999/xlink" x="0px" y="0px"
	 width="30px" height="30px" viewBox="0 0 30 30" enable-background="new 0 0 30 30" xml:space="preserve">
<path d="M28.271,8.994c0.174-0.211,0.31-0.452,0.4-0.709c0.217-0.389,0.077-0.88-0.31-1.098c-0.246-0.136-0.545-0.136-0.788,0
	c-0.258,0.092-0.499,0.229-0.709,0.401c-2.728-0.375-5.48-0.525-8.233-0.45c-0.243-0.448-0.493-0.899-0.762-1.367
	c0.083-0.263,0.116-0.536,0.101-0.809c0.052-0.443-0.266-0.843-0.707-0.895c-0.277-0.032-0.551,0.082-0.725,0.301
	c-0.205,0.184-0.375,0.401-0.504,0.643c-4.416,1.143-8.65,2.897-12.582,5.212c-0.262-0.08-0.536-0.114-0.811-0.098
	C2.2,10.072,1.799,10.389,1.747,10.83c-0.032,0.278,0.082,0.553,0.302,0.727c0.183,0.203,0.4,0.373,0.642,0.503
	c1.143,4.417,2.897,8.651,5.211,12.583c-0.078,0.262-0.112,0.535-0.098,0.81c-0.021,0.354,0.174,0.684,0.492,0.839
	c0.083,0.034,0.172,0.052,0.264,0.051c0.254-0.013,0.496-0.117,0.677-0.295c0.204-0.185,0.373-0.401,0.502-0.644
	c1.512-0.41,2.879-0.837,4.189-1.3c4.295,0.545,8.645,0.516,12.936-0.083c0.21,0.174,0.451,0.31,0.709,0.4
	c0.135,0.048,0.276,0.073,0.42,0.076c0.201,0.006,0.399-0.068,0.543-0.21c0.233-0.265,0.287-0.645,0.133-0.962
	c-0.091-0.26-0.227-0.5-0.398-0.711C28.903,18.097,28.903,13.512,28.271,8.994z M9.458,24.862c-0.082,0.021-0.151,0.078-0.189,0.152
	c-0.103,0.22-0.247,0.415-0.422,0.58c-0.152,0.129-0.271,0.164-0.322,0.145C8.473,25.718,8.414,25.607,8.4,25.41
	c-0.01-0.242,0.026-0.482,0.108-0.71c0.027-0.08,0.018-0.169-0.024-0.242c-2.34-3.958-4.109-8.227-5.251-12.68
	c-0.022-0.082-0.079-0.151-0.155-0.189c-0.217-0.103-0.415-0.247-0.579-0.423c-0.13-0.15-0.166-0.27-0.146-0.321
	c0.022-0.052,0.132-0.11,0.33-0.125c0.029-0.002,0.058-0.003,0.088-0.003c0.212,0.004,0.421,0.043,0.623,0.113
	c0.079,0.027,0.168,0.019,0.241-0.024c3.958-2.34,8.226-4.109,12.679-5.252c0.082-0.022,0.151-0.078,0.189-0.154
	c0.104-0.218,0.247-0.416,0.422-0.58c0.152-0.13,0.273-0.165,0.322-0.144c0.054,0.021,0.11,0.132,0.126,0.329
	c0.01,0.242-0.029,0.482-0.108,0.71c-0.029,0.08-0.02,0.168,0.023,0.243c2.342,3.957,4.108,8.226,5.253,12.678
	c0.021,0.082,0.078,0.152,0.152,0.19c0.219,0.104,0.415,0.246,0.581,0.423c0.128,0.149,0.166,0.271,0.144,0.321
	c-0.023,0.053-0.132,0.11-0.329,0.126c-0.242,0.01-0.483-0.027-0.71-0.109c-0.08-0.027-0.169-0.019-0.243,0.024
	C18.181,21.951,13.912,23.719,9.458,24.862z M27.66,22.666c-0.012,0.085,0.016,0.17,0.07,0.234c0.163,0.178,0.289,0.387,0.373,0.612
	c0.063,0.188,0.052,0.313,0.01,0.352c-0.037,0.041-0.163,0.053-0.351-0.01c-0.227-0.084-0.434-0.21-0.614-0.372
	c-0.063-0.056-0.149-0.083-0.232-0.072c-3.885,0.552-7.822,0.628-11.724,0.228c2.464-0.963,4.846-2.114,7.132-3.445
	c0.261,0.077,0.534,0.111,0.81,0.098c0.441,0.053,0.841-0.266,0.893-0.708c0.035-0.279-0.081-0.554-0.3-0.728
	c-0.184-0.202-0.401-0.371-0.642-0.502c-0.957-3.691-2.345-7.258-4.137-10.625c2.663-0.054,5.328,0.104,7.968,0.469
	c0.083,0.01,0.17-0.016,0.232-0.07c0.181-0.162,0.39-0.289,0.614-0.373c0.188-0.063,0.312-0.05,0.353-0.01
	c0.04,0.039,0.052,0.164-0.012,0.351c-0.084,0.228-0.21,0.437-0.373,0.615c-0.055,0.063-0.082,0.15-0.07,0.234
	C28.31,13.493,28.31,18.115,27.66,22.666z"/>
</svg>
