<?xml version="1.0" encoding="utf-8"?>
<!-- Generator: Adobe Illustrator 16.0.0, SVG Export Plug-In . SVG Version: 6.00 Build 0)  -->
<!DOCTYPE svg PUBLIC "-//W3C//DTD SVG 1.1//EN" "http://www.w3.org/Graphics/SVG/1.1/DTD/svg11.dtd">
<svg version="1.1" id="Layer_1" xmlns="http://www.w3.org/2000/svg" xmlns:xlink="http://www.w3.org/1999/xlink" x="0px" y="0px"
	 width="30px" height="30px" viewBox="0 0 30 30" enable-background="new 0 0 30 30" xml:space="preserve">
<g transform="translate(0,-952.3622)">
	<path d="M18.663,957.156l1.243,1.765l6.975,9.931l-6.17,9.499H2.416v0.498h26.457v-0.498h-7.494l6.014-9.516l-8.111-11.724"/>
	<path d="M18.973,958.378"/>
</g>
<path d="M19.814,8.58c0.023-0.021,0.041-0.044,0.055-0.069c-0.174-0.347-0.234-0.725-0.494-1.052
	c-0.242-0.31-0.451-0.649-0.712-0.946c-0.534-0.607-1.161-0.841-1.837-1.182c-0.004,0.004-0.009,0.007-0.014,0.012l0.005,0.006
	c-0.176-0.073-0.349-0.145-0.53-0.199c-1.842-0.557-3.842-0.087-5.243,1.233l-0.302,0.284l7.344,7.846l0.303-0.281
	c1.409-1.309,2.013-3.275,1.578-5.149C19.927,8.911,19.871,8.745,19.814,8.58z M18.182,13.948l-3.402-3.583l-3.431-3.724
	c0.967-0.773,2.321-1.339,3.525-1.284c0.397,0.017,0.803,0.086,1.2,0.208c2.313,0.718,2.918,1.363,3.466,3.789
	C19.912,11.003,19.271,12.7,18.182,13.948z"/>
</svg>
