<?xml version="1.0" encoding="utf-8"?>
<!-- Generator: Adobe Illustrator 16.0.0, SVG Export Plug-In . SVG Version: 6.00 Build 0)  -->
<!DOCTYPE svg PUBLIC "-//W3C//DTD SVG 1.1//EN" "http://www.w3.org/Graphics/SVG/1.1/DTD/svg11.dtd">
<svg version="1.1" id="Layer_1" xmlns="http://www.w3.org/2000/svg" xmlns:xlink="http://www.w3.org/1999/xlink" x="0px" y="0px"
	 width="30px" height="30px" viewBox="0 0 30 30" enable-background="new 0 0 30 30" xml:space="preserve">
<g transform="translate(0,-952.36218)">
	<path d="M22.713,961.551c0.074-0.208,0.125-0.427,0.125-0.662c0-1.103-0.9-2.003-2.003-2.003c-0.118,0-0.222,0.041-0.331,0.063
		c-0.115-0.993-0.935-1.781-1.959-1.781c-0.316,0-0.608,0.093-0.876,0.224c-0.036-1.071-0.906-1.939-1.986-1.939
		c-1.081,0-1.951,0.869-1.986,1.94c-0.268-0.131-0.559-0.223-0.876-0.223c-1.023,0-1.841,0.787-1.958,1.78
		c-0.111-0.021-0.212-0.063-0.332-0.063c-1.102,0-2.003,0.901-2.003,2.004c0,0.234,0.051,0.454,0.125,0.661
		c-0.884,0.208-1.555,0.968-1.555,1.915c0,0.391,0.117,0.754,0.313,1.063l2.547,14.721c0.022,0.141,0.145,0.244,0.286,0.241h10.875
		c0.158,0.004,0.289-0.123,0.291-0.281s-0.123-0.288-0.281-0.291h-1.315c-0.002,0-0.005,0.002-0.007,0.002h-8.2
		c-0.002,0-0.002-0.001-0.004-0.001h-1.118L8.01,964.61h2.254l0.001,0.006h0.58l-0.002-0.006h2.845v0.006h0.573v-0.006h2.844v0.006
		h0.573v-0.006h2.844l-0.002,0.006h0.58l0.001-0.006h2.255l-2.236,12.834c-0.022,0.158,0.083,0.306,0.242,0.33
		c0.158,0.024,0.307-0.084,0.332-0.242l2.262-13.003c0.195-0.31,0.313-0.673,0.313-1.064
		C24.268,962.52,23.596,961.76,22.713,961.551z M23.58,964.038H7.786c-0.076-0.175-0.117-0.369-0.117-0.572
		c0-0.779,0.614-1.408,1.387-1.431c0.157-0.004,0.282-0.136,0.279-0.292c-0.001-0.048-0.014-0.095-0.038-0.137
		c-0.124-0.212-0.198-0.455-0.198-0.715c0-0.793,0.638-1.43,1.432-1.43c0.165,0,0.326,0.032,0.483,0.089
		c0.149,0.054,0.313-0.021,0.367-0.17c0.014-0.037,0.021-0.077,0.018-0.116c-0.004-0.061-0.009-0.092-0.009-0.09
		c0-0.793,0.638-1.431,1.431-1.431c0.4,0,0.761,0.157,1.019,0.421c0.106,0.117,0.287,0.127,0.404,0.021
		c0.087-0.077,0.118-0.198,0.081-0.307c-0.043-0.138-0.071-0.275-0.071-0.421c0-0.794,0.636-1.432,1.431-1.432
		c0.793,0,1.43,0.638,1.43,1.432c0,0.145-0.027,0.283-0.071,0.421c-0.052,0.149,0.026,0.312,0.175,0.365
		c0.109,0.039,0.23,0.007,0.309-0.079c0.261-0.263,0.617-0.42,1.02-0.42c0.793,0,1.432,0.637,1.432,1.43
		c0-0.001-0.006,0.03-0.01,0.09c-0.011,0.158,0.109,0.292,0.268,0.303c0.039,0.003,0.08-0.003,0.117-0.017
		c0.157-0.057,0.317-0.09,0.483-0.09c0.793,0,1.431,0.638,1.431,1.431c0,0.261-0.074,0.504-0.197,0.716
		c-0.078,0.137-0.031,0.312,0.105,0.392c0.042,0.023,0.089,0.037,0.137,0.038c0.772,0.023,1.386,0.652,1.386,1.431
		C23.696,963.669,23.654,963.865,23.58,964.038z"/>
</g>
</svg>
