<?xml version="1.0" encoding="utf-8"?>
<!-- Generator: Adobe Illustrator 16.0.0, SVG Export Plug-In . SVG Version: 6.00 Build 0)  -->
<!DOCTYPE svg PUBLIC "-//W3C//DTD SVG 1.1//EN" "http://www.w3.org/Graphics/SVG/1.1/DTD/svg11.dtd">
<svg version="1.1" id="Layer_1" xmlns="http://www.w3.org/2000/svg" xmlns:xlink="http://www.w3.org/1999/xlink" x="0px" y="0px"
	 width="30px" height="30px" viewBox="0 0 30 30" enable-background="new 0 0 30 30" xml:space="preserve">
<path d="M21.947,12.582h-1.185l0.661-6.327v0l0.038-0.367c0.042-0.403-0.089-0.807-0.36-1.108c-0.271-0.303-0.66-0.475-1.065-0.475
	h-10.3c-0.406,0-0.794,0.172-1.066,0.475C8.398,5.081,8.268,5.485,8.311,5.888l0.037,0.367v0l0.662,6.327H7.937
	c-0.777,0-1.409,0.632-1.409,1.409v0.978c0,2.874,1.79,5.399,4.476,6.358v4.244c0,0.18,0.147,0.326,0.327,0.326h7.22
	c0.181,0,0.328-0.146,0.328-0.326v-4.244c2.688-0.959,4.477-3.484,4.477-6.358v-0.978C23.355,13.214,22.725,12.582,21.947,12.582z
	 M8.995,5.894H8.969L8.962,5.82C8.938,5.598,9.007,5.384,9.157,5.218C9.307,5.052,9.513,4.96,9.736,4.96h10.3
	c0.224,0,0.429,0.091,0.578,0.258c0.15,0.166,0.22,0.379,0.196,0.602l-0.008,0.074h-0.008c0.035,0.262,0.001,0.523-0.074,0.78
	l-0.618,5.908H9.669L9.038,6.549l0.009-0.085c-0.004-0.02-0.007-0.04-0.012-0.06c0.002,0,0.004,0,0.005-0.001
	c-0.007-0.05-0.022-0.096-0.025-0.149C9.014,6.233,9.022,6.217,9.023,6.197C9.009,6.097,9.002,5.996,8.995,5.894z M22.691,14.231
	c0.02,0.137,0.01,0.275-0.006,0.413h0.016v0.323c0,2.669-1.708,5.003-4.249,5.812c-0.136,0.041-0.229,0.169-0.229,0.312v4.149H11.66
	v-4.149c0-0.143-0.092-0.271-0.229-0.312c-2.542-0.809-4.248-3.143-4.248-5.812v-0.323h0.038c-0.036-0.138-0.058-0.29-0.064-0.466
	c-0.002-0.077,0.028-0.129,0.047-0.189H7.184c0.001-0.415,0.338-0.752,0.753-0.752h14.01c0.414,0,0.754,0.338,0.754,0.752h-0.035
	C22.676,14.07,22.689,14.152,22.691,14.231z"/>
</svg>
