<?xml version="1.0" encoding="utf-8"?>
<!-- Generator: Adobe Illustrator 16.0.0, SVG Export Plug-In . SVG Version: 6.00 Build 0)  -->
<!DOCTYPE svg PUBLIC "-//W3C//DTD SVG 1.1//EN" "http://www.w3.org/Graphics/SVG/1.1/DTD/svg11.dtd">
<svg version="1.1" id="Layer_1" xmlns="http://www.w3.org/2000/svg" xmlns:xlink="http://www.w3.org/1999/xlink" x="0px" y="0px"
	 width="30px" height="30px" viewBox="0 0 30 30" enable-background="new 0 0 30 30" xml:space="preserve">
<g>
	<g>
		<path d="M22.866,25.703H6.814c-0.172,0-0.32-0.074-0.443-0.197s-0.173-0.295-0.148-0.442l2.422-11.35L6.223,6.106
			C6.198,5.884,6.297,5.639,6.494,5.515C6.69,5.392,6.937,5.392,7.134,5.54l1.674,1.158l1.674-1.158
			c0.198-0.147,0.468-0.147,0.689,0l1.674,1.158L14.52,5.54c0.197-0.147,0.467-0.147,0.689,0l1.673,1.158l1.675-1.158
			c0.196-0.147,0.468-0.147,0.689,0l1.674,1.158l1.674-1.158c0.197-0.123,0.443-0.147,0.64-0.024
			c0.197,0.124,0.32,0.345,0.271,0.591l-1.934,7.583l1.885,11.35c0.024,0.173-0.05,0.32-0.148,0.444
			C23.186,25.629,23.038,25.703,22.866,25.703z M6.753,25.197h16.172l-1.885-11.459c0-0.049,0-0.074,0-0.123l1.995-7.728
			l-1.845,1.199c-0.197,0.148-0.467,0.148-0.689,0l-1.674-1.274l-1.674,1.274c-0.197,0.148-0.469,0.148-0.689,0l-1.625-1.157
			l-1.673,1.157c-0.197,0.148-0.468,0.148-0.69,0l-1.674-1.157L9.128,7.203c-0.197,0.147-0.467,0.147-0.689,0L6.827,6.12
			l2.298,7.471c0,0.049,0,0.074,0,0.123L6.753,25.197z"/>
	</g>
	<g>
		<path d="M9.596,22.094c-0.32,0-0.591-0.148-0.591-0.322c0-0.175,0.271-0.322,0.591-0.322l10.488-0.041l0,0
			c0.319,0,0.591,0.148,0.591,0.322c0,0.176-0.271,0.323-0.591,0.323L9.596,22.094L9.596,22.094z"/>
	</g>
</g>
</svg>
