<?xml version="1.0" encoding="utf-8"?>
<!-- Generator: Adobe Illustrator 16.0.0, SVG Export Plug-In . SVG Version: 6.00 Build 0)  -->
<!DOCTYPE svg PUBLIC "-//W3C//DTD SVG 1.1//EN" "http://www.w3.org/Graphics/SVG/1.1/DTD/svg11.dtd">
<svg version="1.1" id="Layer_1" xmlns="http://www.w3.org/2000/svg" xmlns:xlink="http://www.w3.org/1999/xlink" x="0px" y="0px"
	 width="30px" height="30px" viewBox="0 0 30 30" enable-background="new 0 0 30 30" xml:space="preserve">
<g>
	<path d="M10.561,19.249l1.773-1.771l0.008,0.009l4.396-4.396l-0.009-0.01l2.126-2.124l-0.397-0.399l-8.294,8.294
		c-0.256,0.26-1.012,0.594-1.268,0.338l-4.38-4.379c-0.258-0.256,0.08-1.01,0.336-1.269l8.294-8.295L12.752,4.85l-8.295,8.294
		c-0.663,0.661-0.663,1.738,0,2.4l3.705,3.705C8.823,19.911,9.9,19.911,10.561,19.249z"/>
	<polygon points="25.814,6.496 17.98,14.332 17.976,14.326 13.581,18.722 13.586,18.727 7.086,25.223 7.622,25.759 
		26.349,7.032 	"/>
</g>
<polygon points="14.649,15.026 16.023,16.425 15.729,16.793 14.379,15.321 "/>
</svg>
